# xmcd
#
# Track frame offsets:
#	150
#	21442
#	45602
#	68670
#	91297
#	113982
#	134302
#	152697
#	177497
#	202122
#
# Disc length: 3009 seconds
#
# Revision: 1
# Processed by: cddbd v1.5.1PL0 Copyright (c) Steve Scherf et al.
# Submitted via: CDex 1.50Beta5
#
DISCID=8a0bbf0a
DTITLE=遊佐未森 - Bougainvillea
DYEAR=1900
DGENRE=Pop
TTITLE0=遊佐未森/ブーゲンビリアreflect
TTITLE1=遊佐未森/流線reflect
TTITLE2=遊佐未森/ブーゲンビリア
TTITLE3=遊佐未森/流線
TTITLE4=遊佐未森/blue heaven
TTITLE5=桃色の雲は
TTITLE6=花林糖
TTITLE7=Daisy/Daisy
TTITLE8=ユングフラウ Schwarze Katze Version
TTITLE9=彼方
EXTD=
EXTT0=
EXTT1=
EXTT2=
EXTT3=
EXTT4=
EXTT5=
EXTT6=
EXTT7=
EXTT8=
EXTT9=
PLAYORDER=
